<mxfile host="app.diagrams.net" modified="2020-03-31T14:53:21.993Z" agent="5.0 (Windows NT 10.0; Win64; x64) AppleWebKit/537.36 (KHTML, like Gecko) Chrome/80.0.3987.149 Safari/537.36" etag="DMwKc2YtjjXN4dUb6vkG" version="12.9.6" type="github" pages="2">
  <diagram id="NTScjg8hOatjXxuZCJmz" name="Page-1">
    <mxGraphModel dx="1172" dy="903" grid="1" gridSize="10" guides="1" tooltips="1" connect="1" arrows="1" fold="1" page="0" pageScale="1" pageWidth="827" pageHeight="1169" math="0" shadow="0">
      <root>
        <mxCell id="0" />
        <mxCell id="1" parent="0" />
        <mxCell id="xX_9tr6n2L4PGCIqAnOC-5" value="" style="rounded=1;whiteSpace=wrap;html=1;" parent="1" vertex="1">
          <mxGeometry x="305" y="495" width="500" height="180" as="geometry" />
        </mxCell>
        <mxCell id="xX_9tr6n2L4PGCIqAnOC-21" value="" style="rounded=1;whiteSpace=wrap;html=1;" parent="1" vertex="1">
          <mxGeometry x="664" y="522.5" width="120" height="105" as="geometry" />
        </mxCell>
        <mxCell id="xX_9tr6n2L4PGCIqAnOC-20" value="" style="rounded=1;whiteSpace=wrap;html=1;" parent="1" vertex="1">
          <mxGeometry x="360" y="525" width="120" height="105" as="geometry" />
        </mxCell>
        <mxCell id="xX_9tr6n2L4PGCIqAnOC-1" value="" style="rounded=1;whiteSpace=wrap;html=1;" parent="1" vertex="1">
          <mxGeometry x="175" y="70" width="760" height="340" as="geometry" />
        </mxCell>
        <mxCell id="xX_9tr6n2L4PGCIqAnOC-2" value="Client" style="rounded=0;whiteSpace=wrap;html=1;" parent="1" vertex="1">
          <mxGeometry x="-30" y="165" width="120" height="60" as="geometry" />
        </mxCell>
        <mxCell id="xX_9tr6n2L4PGCIqAnOC-3" value="DB" style="shape=cylinder;whiteSpace=wrap;html=1;boundedLbl=1;backgroundOutline=1;" parent="1" vertex="1">
          <mxGeometry x="1010" y="155" width="60" height="80" as="geometry" />
        </mxCell>
        <mxCell id="xX_9tr6n2L4PGCIqAnOC-6" value="ESB" style="rounded=0;whiteSpace=wrap;html=1;fontFamily=Helvetica;fontSize=12;fontColor=#000000;align=center;strokeColor=#000000;fillColor=#ffffff;" parent="1" vertex="1">
          <mxGeometry x="220" y="300" width="670" height="70" as="geometry" />
        </mxCell>
        <mxCell id="xX_9tr6n2L4PGCIqAnOC-43" style="edgeStyle=orthogonalEdgeStyle;shape=flexArrow;rounded=0;orthogonalLoop=1;jettySize=auto;html=1;exitX=0;exitY=0.5;exitDx=0;exitDy=0;entryX=1;entryY=0.5;entryDx=0;entryDy=0;startArrow=block;startSize=3;endSize=3;strokeColor=#000000;fontSize=5;fillColor=#ffffff;" parent="1" source="xX_9tr6n2L4PGCIqAnOC-7" target="xX_9tr6n2L4PGCIqAnOC-2" edge="1">
          <mxGeometry relative="1" as="geometry" />
        </mxCell>
        <mxCell id="xX_9tr6n2L4PGCIqAnOC-7" value="Client Interaction service&amp;nbsp;" style="rounded=0;whiteSpace=wrap;html=1;" parent="1" vertex="1">
          <mxGeometry x="230" y="130" width="60" height="130" as="geometry" />
        </mxCell>
        <mxCell id="xX_9tr6n2L4PGCIqAnOC-8" value="User &lt;br&gt;handler&amp;nbsp;&lt;span style=&quot;color: rgba(0 , 0 , 0 , 0) ; font-family: monospace ; font-size: 0px ; white-space: nowrap&quot;&gt;%3CmxGraphModel%3E%3Croot%3E%3CmxCell%20id%3D%220%22%2F%3E%3CmxCell%20id%3D%221%22%20parent%3D%220%22%2F%3E%3CmxCell%20id%3D%222%22%20value%3D%22Client%20Interaction%20service%26amp%3Bnbsp%3B%22%20style%3D%22rounded%3D0%3BwhiteSpace%3Dwrap%3Bhtml%3D1%3B%22%20vertex%3D%221%22%20parent%3D%221%22%3E%3CmxGeometry%20x%3D%22230%22%20y%3D%22130%22%20width%3D%2260%22%20height%3D%22130%22%20as%3D%22geometry%22%2F%3E%3C%2FmxCell%3E%3C%2Froot%3E%3C%2FmxGraphModel%3E&lt;/span&gt;&lt;br&gt;Service" style="rounded=0;whiteSpace=wrap;html=1;" parent="1" vertex="1">
          <mxGeometry x="310" y="130" width="60" height="130" as="geometry" />
        </mxCell>
        <mxCell id="xX_9tr6n2L4PGCIqAnOC-9" value="Merchant handler service" style="rounded=0;whiteSpace=wrap;html=1;" parent="1" vertex="1">
          <mxGeometry x="400" y="130" width="60" height="130" as="geometry" />
        </mxCell>
        <mxCell id="xX_9tr6n2L4PGCIqAnOC-33" style="edgeStyle=orthogonalEdgeStyle;shape=flexArrow;rounded=0;orthogonalLoop=1;jettySize=auto;html=1;exitX=0.5;exitY=1;exitDx=0;exitDy=0;startArrow=block;startSize=3;endSize=3;strokeColor=#000000;fontSize=5;" parent="1" source="xX_9tr6n2L4PGCIqAnOC-10" edge="1">
          <mxGeometry relative="1" as="geometry">
            <mxPoint x="510" y="300" as="targetPoint" />
            <Array as="points">
              <mxPoint x="510" y="280" />
              <mxPoint x="510" y="280" />
            </Array>
          </mxGeometry>
        </mxCell>
        <mxCell id="xX_9tr6n2L4PGCIqAnOC-10" value="Admin Service" style="rounded=0;whiteSpace=wrap;html=1;" parent="1" vertex="1">
          <mxGeometry x="480" y="130" width="60" height="130" as="geometry" />
        </mxCell>
        <mxCell id="xX_9tr6n2L4PGCIqAnOC-11" value="&lt;font style=&quot;font-size: 12px&quot;&gt;Product&lt;br&gt;Management Service&lt;/font&gt;" style="rounded=0;whiteSpace=wrap;html=1;" parent="1" vertex="1">
          <mxGeometry x="560" y="130" width="80" height="130" as="geometry" />
        </mxCell>
        <mxCell id="xX_9tr6n2L4PGCIqAnOC-12" value="Payment Handler&amp;nbsp;&lt;br&gt;Service" style="rounded=0;whiteSpace=wrap;html=1;" parent="1" vertex="1">
          <mxGeometry x="664" y="130" width="60" height="130" as="geometry" />
        </mxCell>
        <mxCell id="xX_9tr6n2L4PGCIqAnOC-13" value="Delivery Handler Service&amp;nbsp;" style="rounded=0;whiteSpace=wrap;html=1;" parent="1" vertex="1">
          <mxGeometry x="750" y="130" width="60" height="130" as="geometry" />
        </mxCell>
        <mxCell id="xX_9tr6n2L4PGCIqAnOC-44" style="edgeStyle=orthogonalEdgeStyle;shape=flexArrow;rounded=0;orthogonalLoop=1;jettySize=auto;html=1;exitX=1;exitY=0.5;exitDx=0;exitDy=0;entryX=0;entryY=0.5;entryDx=0;entryDy=0;startArrow=block;startSize=3;endSize=3;fontSize=5;fillColor=#ffffff;" parent="1" source="xX_9tr6n2L4PGCIqAnOC-14" target="xX_9tr6n2L4PGCIqAnOC-3" edge="1">
          <mxGeometry relative="1" as="geometry" />
        </mxCell>
        <mxCell id="xX_9tr6n2L4PGCIqAnOC-14" value="Database&amp;nbsp;&lt;br&gt;Service" style="rounded=0;whiteSpace=wrap;html=1;" parent="1" vertex="1">
          <mxGeometry x="827" y="130" width="60" height="130" as="geometry" />
        </mxCell>
        <mxCell id="xX_9tr6n2L4PGCIqAnOC-15" value="Security" style="rounded=0;whiteSpace=wrap;html=1;" parent="1" vertex="1">
          <mxGeometry x="230" y="290" width="70" height="40" as="geometry" />
        </mxCell>
        <mxCell id="xX_9tr6n2L4PGCIqAnOC-16" value="Gateway" style="rounded=0;whiteSpace=wrap;html=1;" parent="1" vertex="1">
          <mxGeometry x="520" y="350" width="70" height="40" as="geometry" />
        </mxCell>
        <mxCell id="xX_9tr6n2L4PGCIqAnOC-18" value="Delivery Service&amp;nbsp;" style="rounded=0;whiteSpace=wrap;html=1;" parent="1" vertex="1">
          <mxGeometry x="390" y="570" width="60" height="50" as="geometry" />
        </mxCell>
        <mxCell id="xX_9tr6n2L4PGCIqAnOC-19" value="Bank Business Service" style="rounded=0;whiteSpace=wrap;html=1;" parent="1" vertex="1">
          <mxGeometry x="694" y="570" width="60" height="50" as="geometry" />
        </mxCell>
        <mxCell id="xX_9tr6n2L4PGCIqAnOC-22" value="Courier Enterprise" style="text;html=1;strokeColor=none;fillColor=none;align=center;verticalAlign=middle;whiteSpace=wrap;rounded=0;" parent="1" vertex="1">
          <mxGeometry x="394" y="530" width="40" height="20" as="geometry" />
        </mxCell>
        <mxCell id="xX_9tr6n2L4PGCIqAnOC-23" value="Bank Enterprise" style="text;html=1;strokeColor=none;fillColor=none;align=center;verticalAlign=middle;whiteSpace=wrap;rounded=0;" parent="1" vertex="1">
          <mxGeometry x="704" y="530" width="40" height="20" as="geometry" />
        </mxCell>
        <mxCell id="xX_9tr6n2L4PGCIqAnOC-25" value="Other Service Providers&amp;nbsp;" style="text;html=1;strokeColor=none;fillColor=none;align=center;verticalAlign=middle;whiteSpace=wrap;rounded=0;" parent="1" vertex="1">
          <mxGeometry x="340" y="500" width="140" height="20" as="geometry" />
        </mxCell>
        <mxCell id="xX_9tr6n2L4PGCIqAnOC-35" style="edgeStyle=orthogonalEdgeStyle;shape=flexArrow;rounded=0;orthogonalLoop=1;jettySize=auto;html=1;exitX=0.5;exitY=1;exitDx=0;exitDy=0;startArrow=block;startSize=3;endSize=3;strokeColor=#000000;fontSize=5;" parent="1" edge="1">
          <mxGeometry relative="1" as="geometry">
            <mxPoint x="599.8" y="260" as="sourcePoint" />
            <mxPoint x="599.8" y="300" as="targetPoint" />
          </mxGeometry>
        </mxCell>
        <mxCell id="xX_9tr6n2L4PGCIqAnOC-36" style="edgeStyle=orthogonalEdgeStyle;shape=flexArrow;rounded=0;orthogonalLoop=1;jettySize=auto;html=1;exitX=0.5;exitY=1;exitDx=0;exitDy=0;startArrow=block;startSize=3;endSize=3;strokeColor=#000000;fontSize=5;" parent="1" edge="1">
          <mxGeometry relative="1" as="geometry">
            <mxPoint x="434" y="260" as="sourcePoint" />
            <mxPoint x="434" y="300" as="targetPoint" />
          </mxGeometry>
        </mxCell>
        <mxCell id="xX_9tr6n2L4PGCIqAnOC-37" style="edgeStyle=orthogonalEdgeStyle;shape=flexArrow;rounded=0;orthogonalLoop=1;jettySize=auto;html=1;exitX=0.5;exitY=1;exitDx=0;exitDy=0;startArrow=block;startSize=3;endSize=3;strokeColor=#000000;fontSize=5;" parent="1" edge="1">
          <mxGeometry relative="1" as="geometry">
            <mxPoint x="340" y="260" as="sourcePoint" />
            <mxPoint x="340" y="300" as="targetPoint" />
          </mxGeometry>
        </mxCell>
        <mxCell id="xX_9tr6n2L4PGCIqAnOC-38" style="edgeStyle=orthogonalEdgeStyle;shape=flexArrow;rounded=0;orthogonalLoop=1;jettySize=auto;html=1;exitX=0.5;exitY=1;exitDx=0;exitDy=0;startArrow=block;startSize=3;endSize=3;strokeColor=#000000;fontSize=5;" parent="1" edge="1">
          <mxGeometry relative="1" as="geometry">
            <mxPoint x="694" y="260" as="sourcePoint" />
            <mxPoint x="694" y="300" as="targetPoint" />
          </mxGeometry>
        </mxCell>
        <mxCell id="xX_9tr6n2L4PGCIqAnOC-39" style="edgeStyle=orthogonalEdgeStyle;shape=flexArrow;rounded=0;orthogonalLoop=1;jettySize=auto;html=1;exitX=0.5;exitY=1;exitDx=0;exitDy=0;startArrow=block;startSize=3;endSize=3;strokeColor=#000000;fontSize=5;" parent="1" edge="1">
          <mxGeometry relative="1" as="geometry">
            <mxPoint x="784" y="260" as="sourcePoint" />
            <mxPoint x="784" y="300" as="targetPoint" />
          </mxGeometry>
        </mxCell>
        <mxCell id="xX_9tr6n2L4PGCIqAnOC-40" style="edgeStyle=orthogonalEdgeStyle;shape=flexArrow;rounded=0;orthogonalLoop=1;jettySize=auto;html=1;exitX=0.5;exitY=1;exitDx=0;exitDy=0;startArrow=block;startSize=3;endSize=3;strokeColor=#000000;fontSize=5;" parent="1" edge="1">
          <mxGeometry relative="1" as="geometry">
            <mxPoint x="860" y="260" as="sourcePoint" />
            <mxPoint x="860" y="300" as="targetPoint" />
          </mxGeometry>
        </mxCell>
        <mxCell id="xX_9tr6n2L4PGCIqAnOC-41" style="edgeStyle=orthogonalEdgeStyle;shape=flexArrow;rounded=0;orthogonalLoop=1;jettySize=auto;html=1;exitX=0.5;exitY=1;exitDx=0;exitDy=0;startArrow=block;startSize=3;endSize=3;strokeColor=#000000;fontSize=5;" parent="1" edge="1">
          <mxGeometry relative="1" as="geometry">
            <mxPoint x="259.8" y="260" as="sourcePoint" />
            <mxPoint x="260" y="290" as="targetPoint" />
          </mxGeometry>
        </mxCell>
        <mxCell id="xX_9tr6n2L4PGCIqAnOC-27" style="edgeStyle=orthogonalEdgeStyle;rounded=0;orthogonalLoop=1;jettySize=auto;html=1;exitX=0.5;exitY=1;exitDx=0;exitDy=0;entryX=0.5;entryY=0;entryDx=0;entryDy=0;shape=flexArrow;startArrow=block;fillColor=#ffffff;" parent="1" source="xX_9tr6n2L4PGCIqAnOC-16" target="xX_9tr6n2L4PGCIqAnOC-5" edge="1">
          <mxGeometry relative="1" as="geometry" />
        </mxCell>
        <mxCell id="xX_9tr6n2L4PGCIqAnOC-45" value="&lt;font style=&quot;font-size: 12px&quot;&gt;SOAP&lt;/font&gt;" style="text;html=1;strokeColor=none;fillColor=none;align=center;verticalAlign=middle;whiteSpace=wrap;rounded=0;fontSize=5;" parent="1" vertex="1">
          <mxGeometry x="570" y="430" width="40" height="20" as="geometry" />
        </mxCell>
        <mxCell id="xX_9tr6n2L4PGCIqAnOC-46" value="&lt;font style=&quot;font-size: 12px&quot;&gt;SOAP&lt;/font&gt;" style="text;html=1;strokeColor=none;fillColor=none;align=center;verticalAlign=middle;whiteSpace=wrap;rounded=0;fontSize=5;" parent="1" vertex="1">
          <mxGeometry x="887" y="270" width="40" height="20" as="geometry" />
        </mxCell>
        <mxCell id="xX_9tr6n2L4PGCIqAnOC-47" value="&lt;font style=&quot;font-size: 12px&quot;&gt;Https&lt;/font&gt;" style="text;html=1;strokeColor=none;fillColor=none;align=center;verticalAlign=middle;whiteSpace=wrap;rounded=0;fontSize=5;" parent="1" vertex="1">
          <mxGeometry x="120" y="165" width="40" height="20" as="geometry" />
        </mxCell>
        <mxCell id="xX_9tr6n2L4PGCIqAnOC-49" value="&lt;font style=&quot;font-size: 12px&quot;&gt;One Stop Shop&lt;/font&gt;" style="text;html=1;strokeColor=none;fillColor=none;align=center;verticalAlign=middle;whiteSpace=wrap;rounded=0;fontSize=5;" parent="1" vertex="1">
          <mxGeometry x="460" y="80" width="180" height="20" as="geometry" />
        </mxCell>
        <mxCell id="xX_9tr6n2L4PGCIqAnOC-50" value="" style="endArrow=none;dashed=1;html=1;strokeColor=#000000;fillColor=#ffffff;fontSize=5;" parent="1" edge="1">
          <mxGeometry width="50" height="50" relative="1" as="geometry">
            <mxPoint x="410" y="-220" as="sourcePoint" />
            <mxPoint x="500" y="-220" as="targetPoint" />
          </mxGeometry>
        </mxCell>
        <mxCell id="xX_9tr6n2L4PGCIqAnOC-51" value="" style="endArrow=none;dashed=1;html=1;strokeColor=#000000;fillColor=#ffffff;fontSize=5;" parent="1" edge="1">
          <mxGeometry width="50" height="50" relative="1" as="geometry">
            <mxPoint x="360" y="940" as="sourcePoint" />
            <mxPoint x="450" y="940" as="targetPoint" />
          </mxGeometry>
        </mxCell>
      </root>
    </mxGraphModel>
  </diagram>
  <diagram id="EHnqXylNE25y1u1BXjke" name="Page-2">
    <mxGraphModel dx="772" dy="1672" grid="1" gridSize="10" guides="1" tooltips="1" connect="1" arrows="1" fold="1" page="1" pageScale="1" pageWidth="827" pageHeight="1169" math="0" shadow="0">
      <root>
        <mxCell id="liXsiIWgld_Al5IUSbC3-0" />
        <mxCell id="liXsiIWgld_Al5IUSbC3-1" parent="liXsiIWgld_Al5IUSbC3-0" />
        <mxCell id="liXsiIWgld_Al5IUSbC3-2" value="&lt;font style=&quot;font-size: 12px&quot;&gt;:User UI&lt;/font&gt;" style="rounded=0;whiteSpace=wrap;html=1;fontSize=5;" parent="liXsiIWgld_Al5IUSbC3-1" vertex="1">
          <mxGeometry x="200" y="160" width="120" height="60" as="geometry" />
        </mxCell>
        <mxCell id="liXsiIWgld_Al5IUSbC3-3" value="&lt;font style=&quot;font-size: 12px&quot;&gt;User&lt;/font&gt;" style="shape=umlActor;verticalLabelPosition=bottom;labelBackgroundColor=#ffffff;verticalAlign=top;html=1;outlineConnect=0;fontSize=5;" parent="liXsiIWgld_Al5IUSbC3-1" vertex="1">
          <mxGeometry x="70" y="160" width="30" height="60" as="geometry" />
        </mxCell>
        <mxCell id="liXsiIWgld_Al5IUSbC3-4" value="&lt;font style=&quot;font-size: 12px&quot;&gt;:Verify&lt;/font&gt;" style="rounded=0;whiteSpace=wrap;html=1;fontSize=5;" parent="liXsiIWgld_Al5IUSbC3-1" vertex="1">
          <mxGeometry x="354" y="160" width="120" height="60" as="geometry" />
        </mxCell>
        <mxCell id="liXsiIWgld_Al5IUSbC3-5" value="&lt;font style=&quot;font-size: 12px&quot;&gt;:Product&lt;/font&gt;" style="rounded=0;whiteSpace=wrap;html=1;fontSize=5;" parent="liXsiIWgld_Al5IUSbC3-1" vertex="1">
          <mxGeometry x="510" y="160" width="120" height="60" as="geometry" />
        </mxCell>
        <mxCell id="liXsiIWgld_Al5IUSbC3-6" value="&lt;font style=&quot;font-size: 12px&quot;&gt;:Cart&lt;/font&gt;" style="rounded=0;whiteSpace=wrap;html=1;fontSize=5;" parent="liXsiIWgld_Al5IUSbC3-1" vertex="1">
          <mxGeometry x="670" y="160" width="120" height="60" as="geometry" />
        </mxCell>
        <mxCell id="liXsiIWgld_Al5IUSbC3-7" value=":Order" style="rounded=0;whiteSpace=wrap;html=1;fontSize=12;" parent="liXsiIWgld_Al5IUSbC3-1" vertex="1">
          <mxGeometry x="827" y="160" width="120" height="60" as="geometry" />
        </mxCell>
        <mxCell id="liXsiIWgld_Al5IUSbC3-8" value=":Payment" style="rounded=0;whiteSpace=wrap;html=1;fontSize=12;" parent="liXsiIWgld_Al5IUSbC3-1" vertex="1">
          <mxGeometry x="980" y="160" width="120" height="60" as="geometry" />
        </mxCell>
        <mxCell id="liXsiIWgld_Al5IUSbC3-9" value=":Delivery" style="rounded=0;whiteSpace=wrap;html=1;fontSize=12;" parent="liXsiIWgld_Al5IUSbC3-1" vertex="1">
          <mxGeometry x="1130" y="160" width="120" height="60" as="geometry" />
        </mxCell>
        <mxCell id="liXsiIWgld_Al5IUSbC3-10" value=":Merchant" style="rounded=0;whiteSpace=wrap;html=1;fontSize=12;" parent="liXsiIWgld_Al5IUSbC3-1" vertex="1">
          <mxGeometry x="1280" y="160" width="120" height="60" as="geometry" />
        </mxCell>
        <mxCell id="liXsiIWgld_Al5IUSbC3-11" value="" style="endArrow=none;dashed=1;html=1;strokeColor=#000000;fillColor=#ffffff;fontSize=12;" parent="liXsiIWgld_Al5IUSbC3-1" edge="1">
          <mxGeometry width="50" height="50" relative="1" as="geometry">
            <mxPoint x="90" y="1122.266810825893" as="sourcePoint" />
            <mxPoint x="90" y="240" as="targetPoint" />
          </mxGeometry>
        </mxCell>
        <mxCell id="liXsiIWgld_Al5IUSbC3-12" value="" style="endArrow=none;dashed=1;html=1;strokeColor=#000000;fillColor=#ffffff;fontSize=12;" parent="liXsiIWgld_Al5IUSbC3-1" source="liXsiIWgld_Al5IUSbC3-21" edge="1">
          <mxGeometry width="50" height="50" relative="1" as="geometry">
            <mxPoint x="259.5" y="1102.266810825893" as="sourcePoint" />
            <mxPoint x="259.5" y="220" as="targetPoint" />
          </mxGeometry>
        </mxCell>
        <mxCell id="liXsiIWgld_Al5IUSbC3-13" value="" style="endArrow=none;dashed=1;html=1;strokeColor=#000000;fillColor=#ffffff;fontSize=12;" parent="liXsiIWgld_Al5IUSbC3-1" source="liXsiIWgld_Al5IUSbC3-26" edge="1">
          <mxGeometry width="50" height="50" relative="1" as="geometry">
            <mxPoint x="413" y="1102.266810825893" as="sourcePoint" />
            <mxPoint x="413" y="220" as="targetPoint" />
          </mxGeometry>
        </mxCell>
        <mxCell id="liXsiIWgld_Al5IUSbC3-14" value="" style="endArrow=none;dashed=1;html=1;strokeColor=#000000;fillColor=#ffffff;fontSize=12;" parent="liXsiIWgld_Al5IUSbC3-1" source="liXsiIWgld_Al5IUSbC3-46" edge="1">
          <mxGeometry width="50" height="50" relative="1" as="geometry">
            <mxPoint x="560" y="1102.266810825893" as="sourcePoint" />
            <mxPoint x="560" y="220" as="targetPoint" />
          </mxGeometry>
        </mxCell>
        <mxCell id="liXsiIWgld_Al5IUSbC3-15" value="" style="endArrow=none;dashed=1;html=1;strokeColor=#000000;fillColor=#ffffff;fontSize=12;" parent="liXsiIWgld_Al5IUSbC3-1" source="liXsiIWgld_Al5IUSbC3-61" edge="1">
          <mxGeometry width="50" height="50" relative="1" as="geometry">
            <mxPoint x="729.5" y="1102.266810825893" as="sourcePoint" />
            <mxPoint x="729.5" y="220" as="targetPoint" />
          </mxGeometry>
        </mxCell>
        <mxCell id="liXsiIWgld_Al5IUSbC3-16" value="" style="endArrow=none;dashed=1;html=1;strokeColor=#000000;fillColor=#ffffff;fontSize=12;" parent="liXsiIWgld_Al5IUSbC3-1" source="liXsiIWgld_Al5IUSbC3-75" edge="1">
          <mxGeometry width="50" height="50" relative="1" as="geometry">
            <mxPoint x="886.5" y="1102.266810825893" as="sourcePoint" />
            <mxPoint x="886.5" y="220" as="targetPoint" />
          </mxGeometry>
        </mxCell>
        <mxCell id="liXsiIWgld_Al5IUSbC3-17" value="" style="endArrow=none;dashed=1;html=1;strokeColor=#000000;fillColor=#ffffff;fontSize=12;" parent="liXsiIWgld_Al5IUSbC3-1" source="liXsiIWgld_Al5IUSbC3-92" edge="1">
          <mxGeometry width="50" height="50" relative="1" as="geometry">
            <mxPoint x="1039.5" y="1102.266810825893" as="sourcePoint" />
            <mxPoint x="1039.5" y="220" as="targetPoint" />
          </mxGeometry>
        </mxCell>
        <mxCell id="liXsiIWgld_Al5IUSbC3-18" value="" style="endArrow=none;dashed=1;html=1;strokeColor=#000000;fillColor=#ffffff;fontSize=12;" parent="liXsiIWgld_Al5IUSbC3-1" source="liXsiIWgld_Al5IUSbC3-102" edge="1">
          <mxGeometry width="50" height="50" relative="1" as="geometry">
            <mxPoint x="1189.5" y="1102.266810825893" as="sourcePoint" />
            <mxPoint x="1189.5" y="220" as="targetPoint" />
          </mxGeometry>
        </mxCell>
        <mxCell id="liXsiIWgld_Al5IUSbC3-19" value="" style="endArrow=none;dashed=1;html=1;strokeColor=#000000;fillColor=#ffffff;fontSize=12;" parent="liXsiIWgld_Al5IUSbC3-1" source="liXsiIWgld_Al5IUSbC3-104" edge="1">
          <mxGeometry width="50" height="50" relative="1" as="geometry">
            <mxPoint x="1339.5" y="1102.266810825893" as="sourcePoint" />
            <mxPoint x="1339.5" y="220" as="targetPoint" />
          </mxGeometry>
        </mxCell>
        <mxCell id="liXsiIWgld_Al5IUSbC3-20" value="" style="rounded=0;whiteSpace=wrap;html=1;fontSize=12;" parent="liXsiIWgld_Al5IUSbC3-1" vertex="1">
          <mxGeometry x="80" y="260" width="20" height="830" as="geometry" />
        </mxCell>
        <mxCell id="liXsiIWgld_Al5IUSbC3-21" value="" style="rounded=0;whiteSpace=wrap;html=1;fontSize=12;" parent="liXsiIWgld_Al5IUSbC3-1" vertex="1">
          <mxGeometry x="250" y="260" width="20" height="810" as="geometry" />
        </mxCell>
        <mxCell id="liXsiIWgld_Al5IUSbC3-22" value="" style="endArrow=none;dashed=1;html=1;strokeColor=#000000;fillColor=#ffffff;fontSize=12;" parent="liXsiIWgld_Al5IUSbC3-1" target="liXsiIWgld_Al5IUSbC3-21" edge="1">
          <mxGeometry width="50" height="50" relative="1" as="geometry">
            <mxPoint x="259.5" y="1102.266810825893" as="sourcePoint" />
            <mxPoint x="259.5" y="220" as="targetPoint" />
          </mxGeometry>
        </mxCell>
        <mxCell id="liXsiIWgld_Al5IUSbC3-26" value="" style="rounded=0;whiteSpace=wrap;html=1;fontSize=12;" parent="liXsiIWgld_Al5IUSbC3-1" vertex="1">
          <mxGeometry x="404" y="300" width="20" height="50" as="geometry" />
        </mxCell>
        <mxCell id="liXsiIWgld_Al5IUSbC3-28" value="" style="endArrow=none;dashed=1;html=1;strokeColor=#000000;fillColor=#ffffff;fontSize=12;" parent="liXsiIWgld_Al5IUSbC3-1" target="liXsiIWgld_Al5IUSbC3-26" edge="1">
          <mxGeometry width="50" height="50" relative="1" as="geometry">
            <mxPoint x="413" y="1102.266810825893" as="sourcePoint" />
            <mxPoint x="413" y="220" as="targetPoint" />
          </mxGeometry>
        </mxCell>
        <mxCell id="liXsiIWgld_Al5IUSbC3-29" value="" style="group" parent="liXsiIWgld_Al5IUSbC3-1" vertex="1" connectable="0">
          <mxGeometry x="102" y="250" width="148" height="29" as="geometry" />
        </mxCell>
        <mxCell id="liXsiIWgld_Al5IUSbC3-23" value="" style="endArrow=classic;html=1;strokeColor=#000000;fillColor=#ffffff;fontSize=12;" parent="liXsiIWgld_Al5IUSbC3-29" edge="1">
          <mxGeometry width="50" height="50" relative="1" as="geometry">
            <mxPoint y="29" as="sourcePoint" />
            <mxPoint x="148" y="29" as="targetPoint" />
          </mxGeometry>
        </mxCell>
        <mxCell id="liXsiIWgld_Al5IUSbC3-24" value="Enter login details&amp;nbsp;" style="text;html=1;align=center;verticalAlign=middle;resizable=0;points=[];autosize=1;fontSize=12;container=1;" parent="liXsiIWgld_Al5IUSbC3-29" vertex="1" collapsed="1">
          <mxGeometry x="16" width="130" height="20" as="geometry">
            <mxRectangle x="36" width="70" height="20" as="alternateBounds" />
          </mxGeometry>
        </mxCell>
        <mxCell id="liXsiIWgld_Al5IUSbC3-30" value="" style="group" parent="liXsiIWgld_Al5IUSbC3-1" vertex="1" connectable="0">
          <mxGeometry x="270" y="270" width="136.6216216216216" height="29" as="geometry" />
        </mxCell>
        <mxCell id="liXsiIWgld_Al5IUSbC3-31" value="" style="endArrow=classic;html=1;strokeColor=#000000;fillColor=#ffffff;fontSize=12;" parent="liXsiIWgld_Al5IUSbC3-30" edge="1">
          <mxGeometry width="50" height="50" relative="1" as="geometry">
            <mxPoint y="29" as="sourcePoint" />
            <mxPoint x="130" y="29" as="targetPoint" />
          </mxGeometry>
        </mxCell>
        <mxCell id="liXsiIWgld_Al5IUSbC3-32" value="Foreward detials&amp;nbsp;" style="text;html=1;align=center;verticalAlign=middle;resizable=0;points=[];autosize=1;fontSize=12;container=1;" parent="liXsiIWgld_Al5IUSbC3-30" vertex="1" collapsed="1">
          <mxGeometry x="16.62162162162162" width="120" height="20" as="geometry">
            <mxRectangle x="16.62162162162162" width="70" height="20" as="alternateBounds" />
          </mxGeometry>
        </mxCell>
        <mxCell id="liXsiIWgld_Al5IUSbC3-39" value="" style="group" parent="liXsiIWgld_Al5IUSbC3-1" vertex="1" connectable="0">
          <mxGeometry x="270" y="320" width="130" height="29" as="geometry" />
        </mxCell>
        <mxCell id="liXsiIWgld_Al5IUSbC3-34" value="" style="endArrow=none;html=1;strokeColor=#000000;fillColor=#ffffff;fontSize=12;startArrow=classic;startFill=1;endFill=0;dashed=1;jumpSize=4;" parent="liXsiIWgld_Al5IUSbC3-39" edge="1">
          <mxGeometry width="50" height="50" relative="1" as="geometry">
            <mxPoint y="29" as="sourcePoint" />
            <mxPoint x="130" y="29" as="targetPoint" />
          </mxGeometry>
        </mxCell>
        <mxCell id="liXsiIWgld_Al5IUSbC3-35" value="Success" style="text;html=1;align=center;verticalAlign=middle;resizable=0;points=[];autosize=1;fontSize=12;container=1;" parent="liXsiIWgld_Al5IUSbC3-39" vertex="1" collapsed="1">
          <mxGeometry x="36.621621621621614" width="80" height="20" as="geometry">
            <mxRectangle x="16.62162162162162" width="70" height="20" as="alternateBounds" />
          </mxGeometry>
        </mxCell>
        <mxCell id="liXsiIWgld_Al5IUSbC3-40" value="" style="group" parent="liXsiIWgld_Al5IUSbC3-1" vertex="1" connectable="0">
          <mxGeometry x="110" y="340" width="151.6216216216216" height="29" as="geometry" />
        </mxCell>
        <mxCell id="liXsiIWgld_Al5IUSbC3-41" value="" style="endArrow=none;html=1;strokeColor=#000000;fillColor=#ffffff;fontSize=12;startArrow=classic;startFill=1;endFill=0;dashed=1;jumpSize=4;" parent="liXsiIWgld_Al5IUSbC3-40" edge="1">
          <mxGeometry width="50" height="50" relative="1" as="geometry">
            <mxPoint y="29" as="sourcePoint" />
            <mxPoint x="130" y="29" as="targetPoint" />
          </mxGeometry>
        </mxCell>
        <mxCell id="liXsiIWgld_Al5IUSbC3-42" value="Redirect to home page" style="text;html=1;align=center;verticalAlign=middle;resizable=0;points=[];autosize=1;fontSize=12;container=1;" parent="liXsiIWgld_Al5IUSbC3-40" vertex="1" collapsed="1">
          <mxGeometry x="1.621621621621614" width="150" height="20" as="geometry">
            <mxRectangle x="16.62162162162162" width="70" height="20" as="alternateBounds" />
          </mxGeometry>
        </mxCell>
        <mxCell id="liXsiIWgld_Al5IUSbC3-43" value="" style="group" parent="liXsiIWgld_Al5IUSbC3-1" vertex="1" connectable="0">
          <mxGeometry x="100" y="410" width="148" height="29" as="geometry" />
        </mxCell>
        <mxCell id="liXsiIWgld_Al5IUSbC3-44" value="" style="endArrow=classic;html=1;strokeColor=#000000;fillColor=#ffffff;fontSize=12;" parent="liXsiIWgld_Al5IUSbC3-43" edge="1">
          <mxGeometry width="50" height="50" relative="1" as="geometry">
            <mxPoint y="29" as="sourcePoint" />
            <mxPoint x="148" y="29" as="targetPoint" />
          </mxGeometry>
        </mxCell>
        <mxCell id="liXsiIWgld_Al5IUSbC3-45" value="View products" style="text;html=1;align=center;verticalAlign=middle;resizable=0;points=[];autosize=1;fontSize=12;container=1;" parent="liXsiIWgld_Al5IUSbC3-43" vertex="1" collapsed="1">
          <mxGeometry x="26" width="110" height="20" as="geometry">
            <mxRectangle x="36" width="70" height="20" as="alternateBounds" />
          </mxGeometry>
        </mxCell>
        <mxCell id="liXsiIWgld_Al5IUSbC3-46" value="" style="rounded=0;whiteSpace=wrap;html=1;fontSize=12;" parent="liXsiIWgld_Al5IUSbC3-1" vertex="1">
          <mxGeometry x="550" y="480" width="20" height="40" as="geometry" />
        </mxCell>
        <mxCell id="liXsiIWgld_Al5IUSbC3-47" value="" style="endArrow=none;dashed=1;html=1;strokeColor=#000000;fillColor=#ffffff;fontSize=12;" parent="liXsiIWgld_Al5IUSbC3-1" target="liXsiIWgld_Al5IUSbC3-46" edge="1">
          <mxGeometry width="50" height="50" relative="1" as="geometry">
            <mxPoint x="560" y="1102.266810825893" as="sourcePoint" />
            <mxPoint x="560" y="220" as="targetPoint" />
          </mxGeometry>
        </mxCell>
        <mxCell id="liXsiIWgld_Al5IUSbC3-48" value="" style="group" parent="liXsiIWgld_Al5IUSbC3-1" vertex="1" connectable="0">
          <mxGeometry x="270" y="450" width="280" height="29" as="geometry" />
        </mxCell>
        <mxCell id="liXsiIWgld_Al5IUSbC3-49" value="" style="endArrow=classic;html=1;strokeColor=#000000;fillColor=#ffffff;fontSize=12;" parent="liXsiIWgld_Al5IUSbC3-48" edge="1">
          <mxGeometry width="50" height="50" relative="1" as="geometry">
            <mxPoint y="29" as="sourcePoint" />
            <mxPoint x="280" y="29" as="targetPoint" />
          </mxGeometry>
        </mxCell>
        <mxCell id="liXsiIWgld_Al5IUSbC3-50" value="Get Product list" style="text;html=1;align=center;verticalAlign=middle;resizable=0;points=[];autosize=1;fontSize=12;container=1;" parent="liXsiIWgld_Al5IUSbC3-48" vertex="1" collapsed="1">
          <mxGeometry x="49.189189189189186" width="110" height="20" as="geometry">
            <mxRectangle x="36" width="70" height="20" as="alternateBounds" />
          </mxGeometry>
        </mxCell>
        <mxCell id="liXsiIWgld_Al5IUSbC3-51" value="" style="group" parent="liXsiIWgld_Al5IUSbC3-1" vertex="1" connectable="0">
          <mxGeometry x="270" y="490" width="280" height="29" as="geometry" />
        </mxCell>
        <mxCell id="liXsiIWgld_Al5IUSbC3-52" value="" style="endArrow=none;html=1;strokeColor=#000000;fillColor=#ffffff;fontSize=12;startArrow=classic;startFill=1;endFill=0;dashed=1;jumpSize=4;" parent="liXsiIWgld_Al5IUSbC3-51" edge="1">
          <mxGeometry width="50" height="50" relative="1" as="geometry">
            <mxPoint y="29" as="sourcePoint" />
            <mxPoint x="280" y="29" as="targetPoint" />
          </mxGeometry>
        </mxCell>
        <mxCell id="liXsiIWgld_Al5IUSbC3-53" value="Product list" style="text;html=1;align=center;verticalAlign=middle;resizable=0;points=[];autosize=1;fontSize=12;container=1;" parent="liXsiIWgld_Al5IUSbC3-51" vertex="1" collapsed="1">
          <mxGeometry x="73.87733887733886" width="90" height="20" as="geometry">
            <mxRectangle x="16.62162162162162" width="70" height="20" as="alternateBounds" />
          </mxGeometry>
        </mxCell>
        <mxCell id="liXsiIWgld_Al5IUSbC3-54" value="" style="group" parent="liXsiIWgld_Al5IUSbC3-1" vertex="1" connectable="0">
          <mxGeometry x="100" y="530" width="151.6216216216216" height="29" as="geometry" />
        </mxCell>
        <mxCell id="liXsiIWgld_Al5IUSbC3-55" value="" style="endArrow=none;html=1;strokeColor=#000000;fillColor=#ffffff;fontSize=12;startArrow=classic;startFill=1;endFill=0;dashed=1;jumpSize=4;" parent="liXsiIWgld_Al5IUSbC3-54" edge="1">
          <mxGeometry width="50" height="50" relative="1" as="geometry">
            <mxPoint y="29" as="sourcePoint" />
            <mxPoint x="130" y="29" as="targetPoint" />
          </mxGeometry>
        </mxCell>
        <mxCell id="liXsiIWgld_Al5IUSbC3-56" value="Show Product list" style="text;html=1;align=center;verticalAlign=middle;resizable=0;points=[];autosize=1;fontSize=12;container=1;" parent="liXsiIWgld_Al5IUSbC3-54" vertex="1" collapsed="1">
          <mxGeometry x="16.621621621621614" width="120" height="20" as="geometry">
            <mxRectangle x="16.62162162162162" width="70" height="20" as="alternateBounds" />
          </mxGeometry>
        </mxCell>
        <mxCell id="liXsiIWgld_Al5IUSbC3-57" value="" style="group" parent="liXsiIWgld_Al5IUSbC3-1" vertex="1" connectable="0">
          <mxGeometry x="101.81" y="585" width="148" height="29" as="geometry" />
        </mxCell>
        <mxCell id="liXsiIWgld_Al5IUSbC3-58" value="" style="endArrow=classic;html=1;strokeColor=#000000;fillColor=#ffffff;fontSize=12;" parent="liXsiIWgld_Al5IUSbC3-57" edge="1">
          <mxGeometry width="50" height="50" relative="1" as="geometry">
            <mxPoint y="29" as="sourcePoint" />
            <mxPoint x="148" y="29" as="targetPoint" />
          </mxGeometry>
        </mxCell>
        <mxCell id="liXsiIWgld_Al5IUSbC3-59" value="Add product to cart" style="text;html=1;align=center;verticalAlign=middle;resizable=0;points=[];autosize=1;fontSize=12;container=1;" parent="liXsiIWgld_Al5IUSbC3-57" vertex="1" collapsed="1">
          <mxGeometry x="16" width="130" height="20" as="geometry">
            <mxRectangle x="36" width="70" height="20" as="alternateBounds" />
          </mxGeometry>
        </mxCell>
        <mxCell id="liXsiIWgld_Al5IUSbC3-61" value="" style="rounded=0;whiteSpace=wrap;html=1;fontSize=12;" parent="liXsiIWgld_Al5IUSbC3-1" vertex="1">
          <mxGeometry x="720" y="620" width="20" height="40" as="geometry" />
        </mxCell>
        <mxCell id="liXsiIWgld_Al5IUSbC3-62" value="" style="endArrow=none;dashed=1;html=1;strokeColor=#000000;fillColor=#ffffff;fontSize=12;" parent="liXsiIWgld_Al5IUSbC3-1" source="liXsiIWgld_Al5IUSbC3-88" target="liXsiIWgld_Al5IUSbC3-61" edge="1">
          <mxGeometry width="50" height="50" relative="1" as="geometry">
            <mxPoint x="729.5" y="1102.266810825893" as="sourcePoint" />
            <mxPoint x="729.5" y="220" as="targetPoint" />
          </mxGeometry>
        </mxCell>
        <mxCell id="liXsiIWgld_Al5IUSbC3-63" value="" style="group" parent="liXsiIWgld_Al5IUSbC3-1" vertex="1" connectable="0">
          <mxGeometry x="270" y="600" width="450" height="29" as="geometry" />
        </mxCell>
        <mxCell id="liXsiIWgld_Al5IUSbC3-64" value="" style="endArrow=classic;html=1;strokeColor=#000000;fillColor=#ffffff;fontSize=12;" parent="liXsiIWgld_Al5IUSbC3-63" edge="1">
          <mxGeometry width="50" height="50" relative="1" as="geometry">
            <mxPoint y="29" as="sourcePoint" />
            <mxPoint x="450" y="29" as="targetPoint" />
          </mxGeometry>
        </mxCell>
        <mxCell id="liXsiIWgld_Al5IUSbC3-65" value="Send product id ,cart id" style="text;html=1;align=center;verticalAlign=middle;resizable=0;points=[];autosize=1;fontSize=12;container=1;" parent="liXsiIWgld_Al5IUSbC3-63" vertex="1" collapsed="1">
          <mxGeometry x="134.99864864864864" width="150" height="20" as="geometry">
            <mxRectangle x="36" width="70" height="20" as="alternateBounds" />
          </mxGeometry>
        </mxCell>
        <mxCell id="liXsiIWgld_Al5IUSbC3-66" value="" style="group" parent="liXsiIWgld_Al5IUSbC3-1" vertex="1" connectable="0">
          <mxGeometry x="270" y="630" width="446.5" height="29" as="geometry" />
        </mxCell>
        <mxCell id="liXsiIWgld_Al5IUSbC3-67" value="" style="endArrow=none;html=1;strokeColor=#000000;fillColor=#ffffff;fontSize=12;startArrow=classic;startFill=1;endFill=0;dashed=1;jumpSize=4;" parent="liXsiIWgld_Al5IUSbC3-66" edge="1">
          <mxGeometry width="50" height="50" relative="1" as="geometry">
            <mxPoint y="29" as="sourcePoint" />
            <mxPoint x="446.50000000000006" y="29" as="targetPoint" />
          </mxGeometry>
        </mxCell>
        <mxCell id="liXsiIWgld_Al5IUSbC3-68" value="Product added" style="text;html=1;align=center;verticalAlign=middle;resizable=0;points=[];autosize=1;fontSize=12;container=1;" parent="liXsiIWgld_Al5IUSbC3-66" vertex="1" collapsed="1">
          <mxGeometry x="149.99797074547072" width="110" height="20" as="geometry">
            <mxRectangle x="16.62162162162162" width="70" height="20" as="alternateBounds" />
          </mxGeometry>
        </mxCell>
        <mxCell id="liXsiIWgld_Al5IUSbC3-69" value="" style="group" parent="liXsiIWgld_Al5IUSbC3-1" vertex="1" connectable="0">
          <mxGeometry x="100" y="660" width="190" height="29" as="geometry" />
        </mxCell>
        <mxCell id="liXsiIWgld_Al5IUSbC3-70" value="" style="endArrow=none;html=1;strokeColor=#000000;fillColor=#ffffff;fontSize=12;startArrow=classic;startFill=1;endFill=0;dashed=1;jumpSize=4;" parent="liXsiIWgld_Al5IUSbC3-69" edge="1">
          <mxGeometry width="50" height="50" relative="1" as="geometry">
            <mxPoint y="29" as="sourcePoint" />
            <mxPoint x="148.24006488240065" y="29" as="targetPoint" />
          </mxGeometry>
        </mxCell>
        <mxCell id="liXsiIWgld_Al5IUSbC3-71" value="Product added successfully" style="text;html=1;align=center;verticalAlign=middle;resizable=0;points=[];autosize=1;fontSize=12;container=1;" parent="liXsiIWgld_Al5IUSbC3-69" vertex="1" collapsed="1">
          <mxGeometry x="-15.255474452554754" width="180" height="20" as="geometry">
            <mxRectangle x="16.62162162162162" width="70" height="20" as="alternateBounds" />
          </mxGeometry>
        </mxCell>
        <mxCell id="liXsiIWgld_Al5IUSbC3-72" value="" style="group" parent="liXsiIWgld_Al5IUSbC3-1" vertex="1" connectable="0">
          <mxGeometry x="100" y="730" width="148" height="29" as="geometry" />
        </mxCell>
        <mxCell id="liXsiIWgld_Al5IUSbC3-73" value="" style="endArrow=classic;html=1;strokeColor=#000000;fillColor=#ffffff;fontSize=12;" parent="liXsiIWgld_Al5IUSbC3-72" edge="1">
          <mxGeometry width="50" height="50" relative="1" as="geometry">
            <mxPoint y="29" as="sourcePoint" />
            <mxPoint x="148" y="29" as="targetPoint" />
          </mxGeometry>
        </mxCell>
        <mxCell id="liXsiIWgld_Al5IUSbC3-74" value="Place order" style="text;html=1;align=center;verticalAlign=middle;resizable=0;points=[];autosize=1;fontSize=12;container=1;" parent="liXsiIWgld_Al5IUSbC3-72" vertex="1" collapsed="1">
          <mxGeometry x="36" width="90" height="20" as="geometry">
            <mxRectangle x="36" width="70" height="20" as="alternateBounds" />
          </mxGeometry>
        </mxCell>
        <mxCell id="liXsiIWgld_Al5IUSbC3-75" value="" style="rounded=0;whiteSpace=wrap;html=1;fontSize=12;" parent="liXsiIWgld_Al5IUSbC3-1" vertex="1">
          <mxGeometry x="877" y="770" width="20" height="270" as="geometry" />
        </mxCell>
        <mxCell id="liXsiIWgld_Al5IUSbC3-76" value="" style="endArrow=none;dashed=1;html=1;strokeColor=#000000;fillColor=#ffffff;fontSize=12;" parent="liXsiIWgld_Al5IUSbC3-1" target="liXsiIWgld_Al5IUSbC3-75" edge="1">
          <mxGeometry width="50" height="50" relative="1" as="geometry">
            <mxPoint x="886.5" y="1102.266810825893" as="sourcePoint" />
            <mxPoint x="886.5" y="220" as="targetPoint" />
          </mxGeometry>
        </mxCell>
        <mxCell id="liXsiIWgld_Al5IUSbC3-77" value="" style="group" parent="liXsiIWgld_Al5IUSbC3-1" vertex="1" connectable="0">
          <mxGeometry x="270" y="741" width="610" height="29" as="geometry" />
        </mxCell>
        <mxCell id="liXsiIWgld_Al5IUSbC3-78" value="" style="endArrow=classic;html=1;strokeColor=#000000;fillColor=#ffffff;fontSize=12;" parent="liXsiIWgld_Al5IUSbC3-77" edge="1">
          <mxGeometry width="50" height="50" relative="1" as="geometry">
            <mxPoint y="29" as="sourcePoint" />
            <mxPoint x="610" y="29" as="targetPoint" />
          </mxGeometry>
        </mxCell>
        <mxCell id="liXsiIWgld_Al5IUSbC3-79" value="Send product id ,cart id" style="text;html=1;align=center;verticalAlign=middle;resizable=0;points=[];autosize=1;fontSize=12;container=1;" parent="liXsiIWgld_Al5IUSbC3-77" vertex="1" collapsed="1">
          <mxGeometry x="182.99816816816818" width="150" height="20" as="geometry">
            <mxRectangle x="36" width="70" height="20" as="alternateBounds" />
          </mxGeometry>
        </mxCell>
        <mxCell id="liXsiIWgld_Al5IUSbC3-85" value="" style="endArrow=none;html=1;strokeColor=#000000;fillColor=#ffffff;fontSize=12;startArrow=classic;startFill=1;endFill=0;jumpSize=4;" parent="liXsiIWgld_Al5IUSbC3-1" edge="1">
          <mxGeometry width="50" height="50" relative="1" as="geometry">
            <mxPoint x="740" y="820" as="sourcePoint" />
            <mxPoint x="880" y="821" as="targetPoint" />
          </mxGeometry>
        </mxCell>
        <mxCell id="liXsiIWgld_Al5IUSbC3-86" value="Get cart info ,cart id&amp;nbsp;" style="text;html=1;align=center;verticalAlign=middle;resizable=0;points=[];autosize=1;fontSize=12;container=1;" parent="liXsiIWgld_Al5IUSbC3-1" vertex="1" collapsed="1">
          <mxGeometry x="737.1532846715328" y="790" width="140" height="20" as="geometry">
            <mxRectangle x="16.62162162162162" width="70" height="20" as="alternateBounds" />
          </mxGeometry>
        </mxCell>
        <mxCell id="liXsiIWgld_Al5IUSbC3-88" value="" style="rounded=0;whiteSpace=wrap;html=1;fontSize=12;" parent="liXsiIWgld_Al5IUSbC3-1" vertex="1">
          <mxGeometry x="720" y="820" width="20" height="40" as="geometry" />
        </mxCell>
        <mxCell id="liXsiIWgld_Al5IUSbC3-89" value="" style="endArrow=none;dashed=1;html=1;strokeColor=#000000;fillColor=#ffffff;fontSize=12;" parent="liXsiIWgld_Al5IUSbC3-1" target="liXsiIWgld_Al5IUSbC3-88" edge="1">
          <mxGeometry width="50" height="50" relative="1" as="geometry">
            <mxPoint x="729.5" y="1102.266810825893" as="sourcePoint" />
            <mxPoint x="729.9783674714131" y="660" as="targetPoint" />
          </mxGeometry>
        </mxCell>
        <mxCell id="liXsiIWgld_Al5IUSbC3-90" value="" style="endArrow=classic;html=1;strokeColor=#000000;fillColor=#ffffff;fontSize=12;startArrow=none;startFill=0;endFill=1;jumpSize=4;dashed=1;" parent="liXsiIWgld_Al5IUSbC3-1" edge="1">
          <mxGeometry width="50" height="50" relative="1" as="geometry">
            <mxPoint x="740" y="850" as="sourcePoint" />
            <mxPoint x="880" y="851" as="targetPoint" />
          </mxGeometry>
        </mxCell>
        <mxCell id="liXsiIWgld_Al5IUSbC3-91" value="product list" style="text;html=1;align=center;verticalAlign=middle;resizable=0;points=[];autosize=1;fontSize=12;container=1;" parent="liXsiIWgld_Al5IUSbC3-1" vertex="1" collapsed="1">
          <mxGeometry x="762.1532846715328" y="830" width="90" height="20" as="geometry">
            <mxRectangle x="16.62162162162162" width="70" height="20" as="alternateBounds" />
          </mxGeometry>
        </mxCell>
        <mxCell id="liXsiIWgld_Al5IUSbC3-92" value="" style="rounded=0;whiteSpace=wrap;html=1;fontSize=12;" parent="liXsiIWgld_Al5IUSbC3-1" vertex="1">
          <mxGeometry x="1030" y="870" width="20" height="60" as="geometry" />
        </mxCell>
        <mxCell id="liXsiIWgld_Al5IUSbC3-94" value="" style="endArrow=none;dashed=1;html=1;strokeColor=#000000;fillColor=#ffffff;fontSize=12;" parent="liXsiIWgld_Al5IUSbC3-1" target="liXsiIWgld_Al5IUSbC3-92" edge="1">
          <mxGeometry width="50" height="50" relative="1" as="geometry">
            <mxPoint x="1039.5" y="1102.266810825893" as="sourcePoint" />
            <mxPoint x="1039.5" y="220" as="targetPoint" />
          </mxGeometry>
        </mxCell>
        <mxCell id="liXsiIWgld_Al5IUSbC3-95" value="" style="group" parent="liXsiIWgld_Al5IUSbC3-1" vertex="1" connectable="0">
          <mxGeometry x="897" y="890" width="263" height="29" as="geometry" />
        </mxCell>
        <mxCell id="liXsiIWgld_Al5IUSbC3-96" value="" style="endArrow=none;html=1;strokeColor=#000000;fillColor=#ffffff;fontSize=12;startArrow=classic;startFill=1;endFill=0;dashed=1;jumpSize=4;" parent="liXsiIWgld_Al5IUSbC3-95" edge="1">
          <mxGeometry width="50" height="50" relative="1" as="geometry">
            <mxPoint y="29" as="sourcePoint" />
            <mxPoint x="132.7083127946511" y="29" as="targetPoint" />
          </mxGeometry>
        </mxCell>
        <mxCell id="liXsiIWgld_Al5IUSbC3-97" value="Successful" style="text;html=1;align=center;verticalAlign=middle;resizable=0;points=[];autosize=1;fontSize=12;container=1;" parent="liXsiIWgld_Al5IUSbC3-95" vertex="1" collapsed="1">
          <mxGeometry x="37.24949199410439" width="90" height="20" as="geometry">
            <mxRectangle x="16.62162162162162" width="70" height="20" as="alternateBounds" />
          </mxGeometry>
        </mxCell>
        <mxCell id="liXsiIWgld_Al5IUSbC3-101" value="Text" style="text;html=1;align=center;verticalAlign=middle;resizable=0;points=[];autosize=1;fontSize=12;" parent="liXsiIWgld_Al5IUSbC3-97" vertex="1">
          <mxGeometry x="31.99949948811286" y="13" width="40" height="20" as="geometry" />
        </mxCell>
        <mxCell id="liXsiIWgld_Al5IUSbC3-98" value="" style="group" parent="liXsiIWgld_Al5IUSbC3-1" vertex="1" connectable="0">
          <mxGeometry x="900" y="850" width="134.05" height="29" as="geometry" />
        </mxCell>
        <mxCell id="liXsiIWgld_Al5IUSbC3-99" value="" style="endArrow=classic;html=1;strokeColor=#000000;fillColor=#ffffff;fontSize=12;" parent="liXsiIWgld_Al5IUSbC3-98" edge="1">
          <mxGeometry width="50" height="50" relative="1" as="geometry">
            <mxPoint y="29" as="sourcePoint" />
            <mxPoint x="130.27748592870546" y="29" as="targetPoint" />
          </mxGeometry>
        </mxCell>
        <mxCell id="liXsiIWgld_Al5IUSbC3-100" value="Request Payment" style="text;html=1;align=center;verticalAlign=middle;resizable=0;points=[];autosize=1;fontSize=12;container=1;" parent="liXsiIWgld_Al5IUSbC3-98" vertex="1" collapsed="1">
          <mxGeometry x="13.078048780487807" width="130" height="20" as="geometry">
            <mxRectangle x="36" width="70" height="20" as="alternateBounds" />
          </mxGeometry>
        </mxCell>
        <mxCell id="liXsiIWgld_Al5IUSbC3-102" value="" style="rounded=0;whiteSpace=wrap;html=1;fontSize=12;" parent="liXsiIWgld_Al5IUSbC3-1" vertex="1">
          <mxGeometry x="1180" y="970" width="20" height="50" as="geometry" />
        </mxCell>
        <mxCell id="liXsiIWgld_Al5IUSbC3-103" value="" style="endArrow=none;dashed=1;html=1;strokeColor=#000000;fillColor=#ffffff;fontSize=12;" parent="liXsiIWgld_Al5IUSbC3-1" target="liXsiIWgld_Al5IUSbC3-102" edge="1">
          <mxGeometry width="50" height="50" relative="1" as="geometry">
            <mxPoint x="1189.5" y="1102.266810825893" as="sourcePoint" />
            <mxPoint x="1189.5" y="220" as="targetPoint" />
          </mxGeometry>
        </mxCell>
        <mxCell id="liXsiIWgld_Al5IUSbC3-104" value="" style="rounded=0;whiteSpace=wrap;html=1;fontSize=12;" parent="liXsiIWgld_Al5IUSbC3-1" vertex="1">
          <mxGeometry x="1330" y="970" width="20" height="30" as="geometry" />
        </mxCell>
        <mxCell id="liXsiIWgld_Al5IUSbC3-105" value="" style="endArrow=none;dashed=1;html=1;strokeColor=#000000;fillColor=#ffffff;fontSize=12;" parent="liXsiIWgld_Al5IUSbC3-1" target="liXsiIWgld_Al5IUSbC3-104" edge="1">
          <mxGeometry width="50" height="50" relative="1" as="geometry">
            <mxPoint x="1339.5" y="1102.266810825893" as="sourcePoint" />
            <mxPoint x="1339.5" y="220" as="targetPoint" />
          </mxGeometry>
        </mxCell>
        <mxCell id="liXsiIWgld_Al5IUSbC3-106" value="" style="group" parent="liXsiIWgld_Al5IUSbC3-1" vertex="1" connectable="0">
          <mxGeometry x="1200" y="971" width="263" height="29" as="geometry" />
        </mxCell>
        <mxCell id="liXsiIWgld_Al5IUSbC3-107" value="" style="endArrow=none;html=1;strokeColor=#000000;fillColor=#ffffff;fontSize=12;startArrow=classic;startFill=1;endFill=0;dashed=1;jumpSize=4;" parent="liXsiIWgld_Al5IUSbC3-106" edge="1">
          <mxGeometry width="50" height="50" relative="1" as="geometry">
            <mxPoint y="29" as="sourcePoint" />
            <mxPoint x="132.7083127946511" y="29" as="targetPoint" />
          </mxGeometry>
        </mxCell>
        <mxCell id="liXsiIWgld_Al5IUSbC3-108" value="Successful" style="text;html=1;align=center;verticalAlign=middle;resizable=0;points=[];autosize=1;fontSize=12;container=1;" parent="liXsiIWgld_Al5IUSbC3-106" vertex="1" collapsed="1">
          <mxGeometry x="37.24949199410439" width="90" height="20" as="geometry">
            <mxRectangle x="16.62162162162162" width="70" height="20" as="alternateBounds" />
          </mxGeometry>
        </mxCell>
        <mxCell id="liXsiIWgld_Al5IUSbC3-109" value="Text" style="text;html=1;align=center;verticalAlign=middle;resizable=0;points=[];autosize=1;fontSize=12;" parent="liXsiIWgld_Al5IUSbC3-108" vertex="1">
          <mxGeometry x="31.99949948811286" y="13" width="40" height="20" as="geometry" />
        </mxCell>
        <mxCell id="liXsiIWgld_Al5IUSbC3-110" value="" style="group" parent="liXsiIWgld_Al5IUSbC3-1" vertex="1" connectable="0">
          <mxGeometry x="1200" y="940" width="130" height="29" as="geometry" />
        </mxCell>
        <mxCell id="liXsiIWgld_Al5IUSbC3-111" value="" style="endArrow=classic;html=1;strokeColor=#000000;fillColor=#ffffff;fontSize=12;" parent="liXsiIWgld_Al5IUSbC3-110" edge="1">
          <mxGeometry width="50" height="50" relative="1" as="geometry">
            <mxPoint y="29" as="sourcePoint" />
            <mxPoint x="126.34146341463415" y="29" as="targetPoint" />
          </mxGeometry>
        </mxCell>
        <mxCell id="liXsiIWgld_Al5IUSbC3-112" value="Request approval&amp;nbsp;" style="text;html=1;align=center;verticalAlign=middle;resizable=0;points=[];autosize=1;fontSize=12;container=1;" parent="liXsiIWgld_Al5IUSbC3-110" vertex="1" collapsed="1">
          <mxGeometry x="-0.002787456446000647" width="130" height="20" as="geometry">
            <mxRectangle x="36" width="70" height="20" as="alternateBounds" />
          </mxGeometry>
        </mxCell>
        <mxCell id="liXsiIWgld_Al5IUSbC3-116" value="Text" style="text;html=1;align=center;verticalAlign=middle;resizable=0;points=[];autosize=1;fontSize=12;" parent="liXsiIWgld_Al5IUSbC3-112" vertex="1">
          <mxGeometry x="58.00278745644596" y="12" width="40" height="20" as="geometry" />
        </mxCell>
        <mxCell id="liXsiIWgld_Al5IUSbC3-113" value="" style="group" parent="liXsiIWgld_Al5IUSbC3-1" vertex="1" connectable="0">
          <mxGeometry x="910" y="940" width="280" height="29" as="geometry" />
        </mxCell>
        <mxCell id="liXsiIWgld_Al5IUSbC3-114" value="" style="endArrow=classic;html=1;strokeColor=#000000;fillColor=#ffffff;fontSize=12;" parent="liXsiIWgld_Al5IUSbC3-113" edge="1">
          <mxGeometry width="50" height="50" relative="1" as="geometry">
            <mxPoint y="29" as="sourcePoint" />
            <mxPoint x="272.12007504690433" y="29" as="targetPoint" />
          </mxGeometry>
        </mxCell>
        <mxCell id="liXsiIWgld_Al5IUSbC3-115" value="Request delivery" style="text;html=1;align=center;verticalAlign=middle;resizable=0;points=[];autosize=1;fontSize=12;container=1;" parent="liXsiIWgld_Al5IUSbC3-113" vertex="1" collapsed="1">
          <mxGeometry x="99.99707317073171" width="120" height="20" as="geometry">
            <mxRectangle x="36" width="70" height="20" as="alternateBounds" />
          </mxGeometry>
        </mxCell>
        <mxCell id="liXsiIWgld_Al5IUSbC3-117" value="" style="group" parent="liXsiIWgld_Al5IUSbC3-1" vertex="1" connectable="0">
          <mxGeometry x="900" y="990" width="550" height="29" as="geometry" />
        </mxCell>
        <mxCell id="liXsiIWgld_Al5IUSbC3-118" value="" style="endArrow=none;html=1;strokeColor=#000000;fillColor=#ffffff;fontSize=12;startArrow=classic;startFill=1;endFill=0;dashed=1;jumpSize=4;" parent="liXsiIWgld_Al5IUSbC3-117" edge="1">
          <mxGeometry width="50" height="50" relative="1" as="geometry">
            <mxPoint y="29" as="sourcePoint" />
            <mxPoint x="277.5268898747457" y="29" as="targetPoint" />
          </mxGeometry>
        </mxCell>
        <mxCell id="liXsiIWgld_Al5IUSbC3-119" value="Successful" style="text;html=1;align=center;verticalAlign=middle;resizable=0;points=[];autosize=1;fontSize=12;container=1;" parent="liXsiIWgld_Al5IUSbC3-117" vertex="1" collapsed="1">
          <mxGeometry x="77.89817717398257" width="90" height="20" as="geometry">
            <mxRectangle x="16.62162162162162" width="70" height="20" as="alternateBounds" />
          </mxGeometry>
        </mxCell>
        <mxCell id="liXsiIWgld_Al5IUSbC3-120" value="Text" style="text;html=1;align=center;verticalAlign=middle;resizable=0;points=[];autosize=1;fontSize=12;" parent="liXsiIWgld_Al5IUSbC3-119" vertex="1">
          <mxGeometry x="31.99949948811286" y="13" width="40" height="20" as="geometry" />
        </mxCell>
        <mxCell id="liXsiIWgld_Al5IUSbC3-121" value="" style="group" parent="liXsiIWgld_Al5IUSbC3-1" vertex="1" connectable="0">
          <mxGeometry x="430" y="1010" width="446.5" height="29" as="geometry" />
        </mxCell>
        <mxCell id="liXsiIWgld_Al5IUSbC3-122" value="" style="endArrow=none;html=1;strokeColor=#000000;fillColor=#ffffff;fontSize=12;startArrow=classic;startFill=1;endFill=0;dashed=1;jumpSize=4;" parent="liXsiIWgld_Al5IUSbC3-121" edge="1">
          <mxGeometry width="50" height="50" relative="1" as="geometry">
            <mxPoint x="-150" y="29" as="sourcePoint" />
            <mxPoint x="446.50000000000006" y="29" as="targetPoint" />
          </mxGeometry>
        </mxCell>
        <mxCell id="liXsiIWgld_Al5IUSbC3-123" value="Success" style="text;html=1;align=center;verticalAlign=middle;resizable=0;points=[];autosize=1;fontSize=12;container=1;" parent="liXsiIWgld_Al5IUSbC3-121" vertex="1" collapsed="1">
          <mxGeometry x="164.99797074547072" width="80" height="20" as="geometry">
            <mxRectangle x="16.62162162162162" width="70" height="20" as="alternateBounds" />
          </mxGeometry>
        </mxCell>
        <mxCell id="liXsiIWgld_Al5IUSbC3-124" value="" style="group" parent="liXsiIWgld_Al5IUSbC3-1" vertex="1" connectable="0">
          <mxGeometry x="100" y="1030" width="190" height="29" as="geometry" />
        </mxCell>
        <mxCell id="liXsiIWgld_Al5IUSbC3-125" value="" style="endArrow=none;html=1;strokeColor=#000000;fillColor=#ffffff;fontSize=12;startArrow=classic;startFill=1;endFill=0;dashed=1;jumpSize=4;" parent="liXsiIWgld_Al5IUSbC3-124" edge="1">
          <mxGeometry width="50" height="50" relative="1" as="geometry">
            <mxPoint y="29" as="sourcePoint" />
            <mxPoint x="148.24006488240065" y="29" as="targetPoint" />
          </mxGeometry>
        </mxCell>
        <mxCell id="liXsiIWgld_Al5IUSbC3-126" value="Order Placed , Tracking no is &lt;br&gt;1234" style="text;html=1;align=center;verticalAlign=middle;resizable=0;points=[];autosize=1;fontSize=12;container=1;" parent="liXsiIWgld_Al5IUSbC3-124" vertex="1" collapsed="1">
          <mxGeometry x="-20.255474452554754" y="-5" width="190" height="30" as="geometry">
            <mxRectangle x="16.62162162162162" width="70" height="20" as="alternateBounds" />
          </mxGeometry>
        </mxCell>
        <mxCell id="rAgcoToVFFg_4McqpoDK-0" value="" style="endArrow=none;dashed=1;html=1;" edge="1" parent="liXsiIWgld_Al5IUSbC3-1">
          <mxGeometry width="50" height="50" relative="1" as="geometry">
            <mxPoint x="180" y="-240" as="sourcePoint" />
            <mxPoint x="230" y="-290" as="targetPoint" />
          </mxGeometry>
        </mxCell>
        <mxCell id="rAgcoToVFFg_4McqpoDK-1" value="" style="endArrow=none;dashed=1;html=1;" edge="1" parent="liXsiIWgld_Al5IUSbC3-1">
          <mxGeometry width="50" height="50" relative="1" as="geometry">
            <mxPoint x="130" y="1530" as="sourcePoint" />
            <mxPoint x="180" y="1480" as="targetPoint" />
          </mxGeometry>
        </mxCell>
      </root>
    </mxGraphModel>
  </diagram>
</mxfile>
